<svg width="41" height="41" viewBox="0 0 41 41" fill="none" xmlns="http://www.w3.org/2000/svg">
<g clip-path="url(#clip0_892:1956)">
<path d="M20.1681 40.4922C17.3618 38.0985 14.7607 35.4744 12.3919 32.6471C8.83708 28.4013 4.61572 22.0782 4.61572 16.0528C4.61257 9.75974 8.40216 4.08501 14.2161 1.67663C20.0301 -0.731745 26.7224 0.600949 31.1703 5.05283C34.0951 7.96469 35.7336 11.9256 35.7205 16.0528C35.7205 22.0782 31.4991 28.4013 27.9443 32.6471C25.5754 35.4744 22.9743 38.0985 20.1681 40.4922ZM20.1681 9.38749C17.7868 9.38749 15.5864 10.6579 14.3958 12.7201C13.2051 14.7824 13.2051 17.3232 14.3958 19.3854C15.5864 21.4477 17.7868 22.7181 20.1681 22.7181C23.8492 22.7181 26.8334 19.7339 26.8334 16.0528C26.8334 12.3716 23.8492 9.38749 20.1681 9.38749Z" fill="#D2840D"/>
</g>
<defs>
<clipPath id="clip0_892:1956">
<rect width="40" height="40" fill="white" transform="translate(0.167969 0.492188)"/>
</clipPath>
</defs>
</svg>
