<svg width="20" height="20" viewBox="0 0 20 20" fill="none" xmlns="http://www.w3.org/2000/svg">
<path fill-rule="evenodd" clip-rule="evenodd" d="M20 10C20 15.5228 15.5228 20 10 20C4.47715 20 0 15.5228 0 10C0 4.47715 4.47715 0 10 0C15.5228 0 20 4.47715 20 10ZM10.3594 7.38287C9.3867 7.78743 7.44278 8.62476 4.52757 9.89486C4.05419 10.0831 3.80621 10.2673 3.78364 10.4473C3.74549 10.7517 4.12659 10.8715 4.64556 11.0347C4.71615 11.0569 4.78929 11.0799 4.86428 11.1043C5.37486 11.2702 6.06169 11.4644 6.41874 11.4721C6.74262 11.4791 7.1041 11.3456 7.5032 11.0715C10.227 9.23293 11.633 8.3036 11.7213 8.28357C11.7835 8.26943 11.8698 8.25166 11.9283 8.30363C11.9868 8.3556 11.981 8.45403 11.9748 8.48043C11.9371 8.64138 10.4411 10.0322 9.66694 10.7519C9.42559 10.9763 9.25439 11.1354 9.2194 11.1718C9.141 11.2532 9.0611 11.3302 8.98431 11.4043C8.50997 11.8615 8.15426 12.2044 9.00401 12.7644C9.41236 13.0335 9.73913 13.256 10.0651 13.478C10.4211 13.7205 10.7762 13.9623 11.2357 14.2635C11.3527 14.3402 11.4645 14.4199 11.5734 14.4975C11.9877 14.7929 12.36 15.0583 12.8198 15.016C13.087 14.9914 13.363 14.7401 13.5032 13.9907C13.8345 12.2197 14.4857 8.38247 14.6362 6.80124C14.6494 6.6627 14.6328 6.4854 14.6195 6.40757C14.6061 6.32974 14.5783 6.21885 14.4771 6.13676C14.3573 6.03954 14.1724 6.01904 14.0896 6.0205C13.7135 6.02712 13.1365 6.22778 10.3594 7.38287Z" fill="white"/>
</svg>
