<?xml version="1.0" standalone="no"?>
<!DOCTYPE svg PUBLIC "-//W3C//DTD SVG 20010904//EN"
 "http://www.w3.org/TR/2001/REC-SVG-20010904/DTD/svg10.dtd">
<svg version="1.0" xmlns="http://www.w3.org/2000/svg"
 width="320.000000pt" height="320.000000pt" viewBox="0 0 320.000000 320.000000"
 preserveAspectRatio="xMidYMid meet">
<metadata>
Created by potrace 1.14, written by Peter Selinger 2001-2017
</metadata>
<g transform="translate(0.000000,320.000000) scale(0.100000,-0.100000)"
fill="#000000" stroke="none">
<path d="M1589 2573 c-1 -5 -3 -37 -4 -73 -1 -36 -3 -76 -4 -90 -2 -42 -52
-109 -97 -131 -46 -22 -115 -27 -156 -11 -44 18 -97 79 -110 127 -7 25 -18 47
-25 49 -11 4 -13 -84 -13 -473 l0 -478 43 -16 c23 -9 117 -41 209 -72 l167
-55 208 69 208 68 0 478 c0 374 -3 479 -12 483 -8 2 -13 -5 -13 -19 0 -37 -39
-108 -74 -133 -92 -67 -222 -41 -277 58 -18 32 -22 56 -23 132 -1 68 -4 94
-13 94 -7 0 -14 -3 -14 -7z m-305 -312 c24 -15 34 -29 34 -46 0 -24 -4 -25
-54 -25 l-54 0 0 71 0 72 20 -26 c11 -14 35 -35 54 -46z m302 -1 l1 -70 -54 0
c-52 0 -53 1 -53 29 0 20 6 32 19 36 10 3 34 21 52 40 19 19 34 35 34 35 1 0
1 -31 1 -70z m116 -6 c12 -3 18 -15 18 -35 0 -28 -1 -29 -54 -29 l-53 0 1 69
1 68 35 -33 c19 -19 42 -37 52 -40z m288 6 l0 -70 -54 0 c-50 0 -53 1 -53 25
0 18 10 31 34 46 19 12 41 32 50 45 8 13 17 24 19 24 2 0 4 -31 4 -70z m-540
-50 c0 -18 -7 -20 -54 -20 -49 0 -55 2 -53 20 1 17 8 20 54 20 46 0 53 -3 53
-20z m407 0 c2 -18 -4 -20 -53 -20 -47 0 -54 2 -54 20 0 17 7 20 53 20 46 0
53 -3 54 -20z m-484 -122 c110 -64 124 -75 112 -88 -13 -12 -23 -10 -84 19
-66 33 -96 35 -85 7 9 -25 -11 -25 -57 -3 -44 22 -44 23 -47 80 -3 50 -1 57
16 57 10 0 76 -33 145 -72z m135 16 c18 -31 29 -60 26 -65 -3 -5 -24 2 -47 15
-23 14 -73 43 -112 65 l-70 41 85 0 86 0 32 -56z m78 4 c-1 -29 -5 -53 -9 -53
-4 0 -22 24 -38 53 l-31 52 39 0 40 0 -1 -52z m75 0 c-16 -29 -34 -51 -38 -48
-4 3 -8 26 -8 53 l0 47 38 0 39 0 -31 -52z m228 48 c-19 -16 -204 -116 -216
-116 -17 0 -17 -2 21 68 l29 52 85 0 c47 0 83 -2 81 -4z m99 -53 c-3 -56 -3
-57 -48 -79 -55 -29 -60 -29 -55 -4 7 34 -15 34 -86 -1 -61 -29 -71 -31 -84
-19 -12 13 2 24 108 86 67 40 132 72 145 73 22 1 23 -2 20 -56z m-327 -94 c9
-4 21 -15 28 -23 11 -13 5 -19 -38 -41 l-51 -25 -51 25 c-49 26 -50 27 -33 46
31 35 96 43 145 18z m322 -500 c-9 -7 -286 -99 -290 -95 -1 1 37 31 85 66 48
36 91 71 97 80 5 8 9 102 10 209 l0 195 50 25 50 26 3 -249 c1 -137 -1 -253
-5 -257z m-715 477 l48 -24 0 -201 -1 -201 65 -47 c36 -26 71 -53 78 -60 8 -7
23 -18 34 -24 46 -25 3 -15 -132 30 l-145 48 -3 252 c-1 138 0 251 3 251 3 0
27 -11 53 -24z m207 -34 l110 -57 0 -247 c0 -137 -2 -248 -4 -248 -8 0 -231
171 -232 178 -1 4 -2 103 -3 220 -1 142 1 212 9 211 5 0 60 -26 120 -57z m381
-161 c-1 -121 -3 -221 -6 -223 -53 -40 -228 -168 -231 -168 -2 0 -4 111 -5
248 l0 247 110 57 c61 31 116 57 122 57 8 1 11 -64 10 -218z"/>
<path d="M2420 1045 c-74 -23 -130 -89 -145 -168 -35 -187 158 -320 334 -230
l56 29 3 92 3 92 -41 1 c-22 0 -56 1 -75 1 -64 0 -65 -1 -65 -31 0 -33 10 -38
66 -35 l41 3 -1 -41 c-1 -33 -6 -43 -29 -55 -35 -18 -98 -19 -137 -3 -39 16
-80 85 -80 134 0 120 118 188 225 130 l36 -19 19 25 c11 14 20 28 20 31 0 3
-17 15 -37 26 -50 28 -136 36 -193 18z"/>
<path d="M2 838 c3 -206 4 -213 23 -212 54 2 51 -8 49 167 -1 89 -2 167 -3
174 0 6 -14 10 -31 9 -39 -3 -38 0 4 18 25 10 34 20 33 35 -1 17 -8 21 -39 21
l-38 0 2 -212z"/>
<path d="M302 838 l3 -213 115 0 c155 -1 202 16 224 79 20 58 3 105 -51 135
-16 8 -15 11 6 28 16 13 25 33 28 66 5 42 3 49 -25 75 -39 36 -67 42 -198 42
l-104 0 2 -212z m216 137 c25 -6 42 -39 35 -66 -7 -25 -48 -39 -117 -39 l-63
0 3 58 c1 31 3 57 3 58 4 2 121 -7 139 -11z m44 -193 c27 -27 18 -66 -20 -81
-16 -7 -60 -11 -98 -9 l-69 3 -1 50 c0 28 1 53 4 58 2 4 39 6 84 3 64 -3 84
-7 100 -24z"/>
<path d="M855 840 c-1 -116 2 -210 5 -211 3 -1 20 -2 38 -4 l32 -3 0 74 0 74
48 0 c47 -1 47 -1 97 -73 49 -69 52 -72 93 -73 23 0 42 1 42 3 0 2 -24 39 -54
82 l-54 77 28 11 c60 23 88 119 54 184 -26 51 -80 69 -214 69 l-115 0 0 -210z
m246 122 c15 -13 22 -30 22 -51 0 -51 -22 -65 -113 -69 l-80 -4 0 71 0 71 74
0 c57 0 79 -4 97 -18z"/>
<path d="M1409 1028 c-1 -32 -1 -370 0 -389 1 -11 11 -16 36 -15 28 1 35 5 36
21 1 26 1 376 0 393 -1 7 -15 12 -36 12 -29 0 -35 -4 -36 -22z"/>
<path d="M1709 970 c0 -44 0 -129 0 -190 0 -60 0 -121 0 -133 1 -24 2 -24 111
-22 95 2 117 6 158 27 130 67 151 247 41 342 -50 42 -103 56 -218 56 l-91 0
-1 -80z m227 -6 c44 -21 74 -70 74 -124 0 -96 -58 -146 -166 -145 l-59 0 -1
143 -1 142 59 0 c34 0 75 -7 94 -16z"/>
<path d="M2883 838 l2 -213 158 0 157 0 0 32 0 33 -119 0 -119 0 -3 33 c-2 17
-3 44 -1 58 l3 25 102 0 102 -1 3 33 c2 21 -1 32 -10 33 -7 1 -54 1 -105 1
l-91 0 -4 32 c-8 76 -10 75 120 78 l117 3 0 30 0 30 -157 3 -156 2 1 -212z"/>
</g>
</svg>
